<?xml version="1.0" standalone="no"?>
<!DOCTYPE svg PUBLIC "-//W3C//DTD SVG 20010904//EN"
 "http://www.w3.org/TR/2001/REC-SVG-20010904/DTD/svg10.dtd">
<svg version="1.0" xmlns="http://www.w3.org/2000/svg"
 width="681.000000pt" height="679.000000pt" viewBox="0 0 681.000000 679.000000"
 preserveAspectRatio="xMidYMid meet">

<g transform="translate(0.000000,679.000000) scale(0.100000,-0.100000)"
fill="#000000" stroke="none">
<path d="M0 3395 l0 -3395 3405 0 3405 0 0 3395 0 3395 -3405 0 -3405 0 0
-3395z m5940 145 l0 -320 -2532 2 -2533 3 -3 318 -2 317 2535 0 2535 0 0 -320z
m-3098 -1477 c38 -34 12 -113 -38 -113 -18 0 -23 -6 -26 -32 -2 -22 -9 -34
-20 -36 -16 -3 -18 7 -18 97 l0 101 42 0 c24 0 49 -7 60 -17z m118 -38 c0 -8
-9 -15 -19 -15 -24 0 -31 -19 -31 -81 0 -37 -4 -49 -15 -49 -12 0 -15 15 -15
74 0 69 2 75 23 79 44 9 57 7 57 -8z m101 5 c15 -9 19 -21 19 -68 0 -67 -6
-78 -42 -87 -39 -10 -68 23 -68 78 0 72 39 104 91 77z m128 4 l31 -6 0 -77 c0
-94 -14 -125 -57 -129 -24 -2 -34 2 -43 18 -15 27 -5 38 20 22 28 -17 40 -15
40 8 0 14 -7 20 -23 20 -35 0 -47 19 -47 75 0 70 13 82 79 69z m141 -8 c0 -8
-10 -16 -22 -18 -21 -3 -23 -9 -26 -66 -3 -53 -6 -63 -20 -60 -14 3 -18 17
-20 75 -3 68 -2 72 20 76 48 9 68 7 68 -7z m98 2 c7 -7 12 -40 12 -80 0 -60
-2 -68 -19 -68 -11 0 -26 -3 -34 -6 -17 -6 -57 29 -57 50 0 22 29 46 56 46 14
0 24 6 24 14 0 21 -20 30 -33 17 -15 -15 -37 -14 -37 2 0 21 22 37 50 37 14 0
31 -5 38 -12z m212 -8 c6 -10 10 -46 10 -79 0 -48 -3 -61 -15 -61 -11 0 -15
13 -15 53 0 28 -4 58 -9 66 -17 27 -31 -1 -31 -60 0 -52 -2 -60 -17 -57 -14 2
-19 15 -21 53 -1 28 -5 57 -8 65 -10 29 -34 -21 -34 -72 0 -36 -4 -48 -15 -48
-12 0 -15 15 -15 74 0 85 -5 81 103 83 46 1 59 -3 67 -17z m205 -4 c9 -12 15
-44 15 -79 0 -50 -2 -58 -17 -55 -14 2 -19 15 -21 53 -4 69 -8 80 -27 65 -10
-8 -15 -31 -15 -66 0 -41 -4 -54 -15 -54 -12 0 -15 13 -15 58 0 64 -6 78 -27
61 -8 -7 -13 -32 -13 -65 0 -41 -4 -54 -15 -54 -12 0 -15 15 -15 74 0 84 -4
81 98 82 43 1 56 -3 67 -20z m127 7 c10 -9 18 -29 18 -45 0 -26 -3 -28 -40
-28 -42 0 -53 -17 -26 -39 10 -9 16 -8 26 4 7 8 19 15 27 15 23 0 11 -33 -18
-49 -24 -13 -29 -13 -53 2 -23 15 -26 24 -26 72 0 58 16 85 52 85 12 0 30 -7
40 -17z m125 0 c2 -6 -6 -13 -19 -15 -20 -3 -24 -10 -28 -63 -4 -47 -9 -61
-22 -63 -16 -3 -18 6 -18 72 0 69 2 75 23 79 34 7 60 3 64 -10z"/>
<path d="M1362 3563 c2 -82 7 -118 16 -121 9 -3 12 12 12 52 0 31 3 56 7 56 4
0 30 -25 58 -57 28 -31 57 -54 64 -52 9 3 -5 25 -42 64 l-55 60 50 53 c70 74
51 79 -22 7 l-60 -59 0 57 c0 45 -3 57 -15 57 -13 0 -15 -17 -13 -117z"/>
<path d="M1660 3560 c0 -100 3 -120 15 -120 12 0 15 13 15 55 l0 55 60 0 60 0
0 -55 c0 -43 3 -55 15 -55 13 0 15 17 13 117 -2 82 -7 118 -15 121 -10 3 -13
-12 -13 -52 l0 -56 -60 0 -60 0 0 33 c0 41 -10 77 -21 77 -5 0 -9 -54 -9 -120z"/>
<path d="M2030 3623 c-67 -174 -70 -183 -56 -183 7 0 17 15 22 33 9 31 12 32
67 35 53 3 57 1 63 -22 6 -26 31 -53 40 -44 9 10 -88 238 -101 238 -7 0 -22
-26 -35 -57z m58 -43 l21 -50 -45 0 c-33 0 -44 4 -40 13 2 6 10 29 17 50 7 20
15 37 19 37 4 0 17 -22 28 -50z"/>
<path d="M2294 3667 c-10 -28 1 -220 13 -224 9 -3 13 21 15 87 l3 91 65 -90
c35 -50 68 -91 72 -91 4 0 8 54 8 120 0 73 -4 120 -10 120 -6 0 -10 -35 -10
-85 0 -47 -3 -85 -7 -85 -5 0 -35 39 -68 85 -61 86 -72 95 -81 72z"/>
<path d="M2637 3673 c-3 -5 -10 -44 -16 -88 -6 -44 -14 -95 -17 -112 -5 -25
-3 -33 9 -33 11 0 17 19 22 80 4 44 11 82 15 85 5 3 23 -33 41 -80 17 -47 37
-85 44 -85 7 0 27 39 45 86 17 47 35 83 38 79 3 -3 11 -40 16 -83 8 -57 15
-78 27 -80 15 -3 15 8 -2 115 -10 65 -18 119 -19 121 0 1 -6 2 -14 2 -9 0 -23
-26 -37 -67 -12 -38 -29 -84 -37 -103 l-14 -35 -37 99 c-33 92 -51 120 -64 99z"/>
<path d="M3073 3663 c-3 -10 -23 -62 -45 -116 -42 -108 -42 -107 -28 -107 5 0
16 16 24 35 14 33 17 35 66 35 48 0 51 -2 67 -35 15 -32 52 -52 40 -22 -3 6
-24 60 -48 120 -41 104 -62 128 -76 90z m41 -76 c9 -23 16 -46 16 -50 0 -4
-18 -7 -40 -7 -22 0 -40 1 -40 3 0 15 34 97 40 97 4 0 15 -19 24 -43z"/>
<path d="M3362 3665 c-64 -28 -81 -140 -30 -192 32 -31 84 -39 132 -19 36 15
37 17 34 58 -3 42 -4 43 -40 46 -22 2 -38 -1 -38 -7 0 -6 12 -11 26 -11 23 0
25 -3 22 -37 -3 -33 -6 -38 -32 -41 -47 -6 -75 6 -92 40 -47 91 49 207 115
137 13 -14 21 -17 26 -9 21 34 -68 60 -123 35z"/>
<path d="M3683 3666 c-78 -35 -86 -166 -13 -209 46 -28 87 -22 126 17 30 30
34 40 34 85 0 41 -5 56 -27 81 -33 36 -76 45 -120 26z m92 -31 c33 -32 35
-110 4 -149 -40 -51 -114 -24 -126 46 -16 101 60 166 122 103z"/>
<path d="M3976 3658 c-13 -58 -28 -209 -22 -215 12 -12 16 4 28 90 6 48 14 84
17 81 3 -3 20 -42 37 -87 17 -45 38 -83 45 -85 9 -2 24 24 43 78 15 44 32 82
36 85 4 3 13 -29 19 -71 12 -82 16 -94 33 -94 7 0 8 14 5 38 -3 20 -11 74 -18
120 -15 110 -31 106 -75 -17 -18 -51 -35 -95 -37 -97 -4 -4 -11 12 -57 139
-22 59 -46 74 -54 35z"/>
<path d="M4350 3560 l0 -120 75 0 c43 0 75 4 75 10 0 6 -27 10 -60 10 l-60 0
0 45 0 45 55 0 c30 0 55 5 55 10 0 6 -25 10 -55 10 l-55 0 0 45 0 45 60 0 c33
0 60 4 60 10 0 6 -32 10 -75 10 l-75 0 0 -120z"/>
<path d="M4632 3563 l3 -118 55 -3 c74 -3 115 21 130 79 9 31 8 50 -2 82 -16
52 -60 77 -136 77 l-53 0 3 -117z m132 78 c38 -41 40 -122 5 -160 -14 -15 -32
-21 -64 -21 l-45 0 0 100 0 100 43 0 c30 0 49 -6 61 -19z"/>
<path d="M5003 3660 c-42 -25 -53 -48 -53 -109 0 -61 28 -99 80 -107 48 -8 86
9 110 48 37 60 22 135 -32 168 -41 25 -65 25 -105 0z m97 -20 c37 -37 39 -122
4 -161 -26 -29 -78 -25 -103 7 -31 39 -29 117 4 149 29 30 68 32 95 5z"/>
<path d="M5270 3668 c2 -30 87 -223 101 -226 10 -1 27 33 57 110 45 119 47
128 33 128 -4 0 -22 -39 -40 -87 -39 -109 -49 -126 -57 -98 -29 101 -95 224
-94 173z"/>
<path d="M2780 2016 c0 -39 18 -48 41 -20 15 18 2 47 -25 52 -12 3 -16 -4 -16
-32z"/>
<path d="M3010 1961 c0 -52 7 -65 29 -52 20 13 10 95 -11 99 -15 3 -18 -4 -18
-47z"/>
<path d="M3147 2004 c-4 -4 -7 -25 -7 -46 0 -32 3 -38 21 -38 18 0 20 5 17 42
-3 39 -16 57 -31 42z"/>
<path d="M3372 1923 c2 -10 10 -18 18 -18 8 0 16 8 18 18 2 12 -3 17 -18 17
-15 0 -20 -5 -18 -17z"/>
<path d="M3914 1999 c-9 -15 11 -33 30 -26 9 4 13 13 10 22 -7 17 -30 20 -40
4z"/>
</g>
</svg>
